<svg width="500" height="500" viewBox="0 0 68 68" xmlns="http://www.w3.org/2000/svg">
 <g>
  <title>Layer 1</title>
  <path id="svg_3" fill="#5468ff" d="m37.955505,59.834678c0,3.314 -2.686,6 -6,6l-24,0c-3.314,0 -6,-2.686 -6,-6l0,-52c0,-3.314 2.686,-6 6,-6l24,0c3.314,0 6,2.686 6,6l0,52z"/>
  <rect id="svg_4" fill="#3E3E3F" y="13.834678" x="3.955505" width="32" height="40"/>
  <circle id="svg_5" fill="#CFD3D4" r="1" cy="8.834678" cx="12.955505"/>
  <path id="svg_6" fill="#CFD3D4" d="m27.955505,8.834678c0,0.552 -0.448,1 -1,1l-10,0c-0.552,0 -1,-0.448 -1,-1s0.448,-1 1,-1l10,0c0.552,0 1,0.448 1,1z"/>
  <circle id="svg_7" fill="#CFD3D4" r="4" cy="59.834678" cx="19.955505"/>
  <rect id="svg_8" fill="#efe8e8" y="57.834678" x="17.955505" width="4" height="4"/>
  <polygon id="svg_9" fill="#5B5C5F" points="35.95550537109375,18.51067543029785 35.95550537109375,13.834676742553711 3.9555046558380127,13.834676742553711 3.9555046558380127,50.510677337646484 "/>
  <path id="svg_10" fill="#ed7a00" d="m45.955505,5.834678c-11.046,0 -20,6.321 -20,14.118c0,3.817 2.155,7.274 5.642,9.814l-4.642,12.068l12.103,-8.645c2.153,0.559 4.47,0.88 6.897,0.88c11.046,0 20,-6.321 20,-14.118s-8.954,-14.117 -20,-14.117z"/>
  <path id="svg_11" fill="#ff8700" d="m45.955505,5.834678c-11.046,0 -20,6.321 -20,14.118c0,3.817 2.155,7.274 5.642,9.814l-4.642,12.068l0.431,-0.308l32.008,-32.008c-3.552,-2.281 -8.258,-3.684 -13.439,-3.684z"/>
  <circle id="svg_12" fill="#21B2D1" r="2" cy="19.834678" cx="37.955505"/>
  <circle id="svg_13" fill="#21B2D1" r="2" cy="19.834678" cx="45.955505"/>
  <circle id="svg_14" fill="#21B2D1" r="2" cy="19.834678" cx="53.955505"/>
 </g>
</svg>
